<svg width="100%" height="100%" viewBox="0 0 206 205" fill="none" xmlns="http://www.w3.org/2000/svg">
<path d="M205.335 102.5C205.335 159.109 159.444 205 102.835 205C46.2258 205 0.334961 159.109 0.334961 102.5C0.334961 45.8908 46.2258 0 102.835 0C159.444 0 205.335 45.8908 205.335 102.5ZM57.1258 102.5C57.1258 127.744 77.5905 148.209 102.835 148.209C128.079 148.209 148.544 127.744 148.544 102.5C148.544 77.2555 128.079 56.7908 102.835 56.7908C77.5905 56.7908 57.1258 77.2555 57.1258 102.5Z" fill="#EEF0FA"/>
<path d="M103.335 17C82.801 17 62.9448 24.3471 47.3564 37.7129C31.7681 51.0787 21.4765 69.581 18.3425 89.8744C15.2085 110.168 19.439 130.913 30.2691 148.358C41.0992 165.804 57.8139 178.799 77.3912 184.993L83.6064 165.351C68.7192 160.64 56.0087 150.758 47.7732 137.492C39.5376 124.226 36.3206 108.451 38.7038 93.0188C41.087 77.587 48.913 63.5173 60.767 53.3535C72.6209 43.1896 87.7203 37.6026 103.335 37.6026V17Z" fill="#FFCC91"/>
<path d="M38.3513 46.6696C46.4991 37.2701 56.5891 29.75 67.925 24.6282C79.261 19.5064 91.5732 16.9047 104.012 17.0027L103.85 37.6047C94.3909 37.5302 85.0283 39.5086 76.408 43.4034C67.7878 47.2982 60.115 53.0167 53.9191 60.1644L38.3513 46.6696Z" fill="#97A5EB"/>
<path d="M103.335 17C115.809 17 128.133 19.7135 139.453 24.9522C150.774 30.1909 160.819 37.8295 168.892 47.3382C176.966 56.8468 182.874 67.9979 186.207 80.018C189.541 92.038 190.219 104.639 188.196 116.948C186.173 129.257 181.497 140.978 174.492 151.298C167.486 161.619 158.32 170.293 147.627 176.717C136.935 183.141 124.974 187.163 112.572 188.502C100.17 189.842 87.6259 188.468 75.8084 184.476L82.4028 164.957C91.3893 167.993 100.929 169.038 110.359 168.019C119.79 167 128.886 163.942 137.016 159.057C145.147 154.172 152.118 147.576 157.445 139.728C162.772 131.88 166.328 122.966 167.866 113.606C169.405 104.247 168.889 94.6641 166.354 85.5237C163.819 76.3832 159.326 67.9035 153.187 60.6728C147.048 53.4421 139.409 47.6335 130.801 43.6498C122.192 39.6661 112.82 37.6026 103.335 37.6026V17Z" fill="#5570F1"/>
</svg>
